<svg width="256" height="256" viewBox="0 0 256 256" xmlns="http://www.w3.org/2000/svg">
  <defs>
    <filter id="shadow-blur" x="-50%" y="-50%" width="200%" height="200%">
      <feGaussianBlur stdDeviation="4"/>
    </filter>
  </defs>

  <g transform="translate(28,43) scale(2.247)" fill="#000000" opacity="0.28" filter="url(#shadow-blur)">
    <g transform="translate(0,6)">
      <path d="M88.818,45.634a2.054,2.054,0,0,1-2.054,2.054H68.106l-3.724,4.9a2.054,2.054,0,0,1-3.6-.64L57.469,41.154,54.754,55.935a2.054,2.054,0,0,1-4.055-.094L48.083,36.616,44.825,71.624a2.053,2.053,0,0,1-2.04,1.863h0a2.054,2.054,0,0,1-2.044-1.853L38.217,45.911,36.282,61.639a2.053,2.053,0,0,1-2.018,1.8h-.02a2.055,2.055,0,0,1-2.034-1.765l-2.706-19-2.837,9.767A2.055,2.055,0,0,1,24.7,53.927h0a2.055,2.055,0,0,1-1.971-1.487l-2.6-9.051-2.733,2.995a2.078,2.078,0,0,1-1.528.67l-12.633-.07a2.054,2.054,0,0,1,.011-4.108h.011l11.72.065,4.593-5.035a2.054,2.054,0,0,1,3.492.817l1.653,5.751,3.515-12.1a2.054,2.054,0,0,1,4.006.284L34.1,45.776,36.41,26.952A2.054,2.054,0,0,1,40.493,27l2.235,22.823,2.926-31.45a2.054,2.054,0,0,1,4.081-.087l3.3,24.261,1.91-10.4a2.054,2.054,0,0,1,3.984-.232l4.6,14.995,1.917-2.522a2.053,2.053,0,0,1,1.635-.811H86.764A2.055,2.055,0,0,1,88.818,45.634Z"/>
    </g>
  </g>

  <g transform="translate(28,37) scale(2.247)" fill="#389afc">
    <path d="M88.818,45.634a2.054,2.054,0,0,1-2.054,2.054H68.106l-3.724,4.9a2.054,2.054,0,0,1-3.6-.64L57.469,41.154,54.754,55.935a2.054,2.054,0,0,1-4.055-.094L48.083,36.616,44.825,71.624a2.053,2.053,0,0,1-2.04,1.863h0a2.054,2.054,0,0,1-2.044-1.853L38.217,45.911,36.282,61.639a2.053,2.053,0,0,1-2.018,1.8h-.02a2.055,2.055,0,0,1-2.034-1.765l-2.706-19-2.837,9.767A2.055,2.055,0,0,1,24.7,53.927h0a2.055,2.055,0,0,1-1.971-1.487l-2.6-9.051-2.733,2.995a2.078,2.078,0,0,1-1.528.67l-12.633-.07a2.054,2.054,0,0,1,.011-4.108h.011l11.72.065,4.593-5.035a2.054,2.054,0,0,1,3.492.817l1.653,5.751,3.515-12.1a2.054,2.054,0,0,1,4.006.284L34.1,45.776,36.41,26.952A2.054,2.054,0,0,1,40.493,27l2.235,22.823,2.926-31.45a2.054,2.054,0,0,1,4.081-.087l3.3,24.261,1.91-10.4a2.054,2.054,0,0,1,3.984-.232l4.6,14.995,1.917-2.522a2.053,2.053,0,0,1,1.635-.811H86.764A2.055,2.055,0,0,1,88.818,45.634Z"/>
  </g>
</svg>
